<?xml version="1.0" encoding="UTF-8" standalone="no"?>
<!DOCTYPE svg PUBLIC "-//W3C//DTD SVG 1.1//EN"
 "http://www.w3.org/Graphics/SVG/1.1/DTD/svg11.dtd">
<!-- Generated by graphviz version 2.40.1 (20161225.0304)
 -->
<!-- Title: dependencies Pages: 1 -->
<svg width="905pt" height="211pt"
 viewBox="0.00 0.00 905.00 211.00" xmlns="http://www.w3.org/2000/svg" xmlns:xlink="http://www.w3.org/1999/xlink">
<g id="graph0" class="graph" transform="scale(1 1) rotate(0) translate(4 207)">
<title>dependencies</title>
<polygon fill="#ffffff" stroke="transparent" points="-4,4 -4,-207 901,-207 901,4 -4,4"/>
<text text-anchor="start" x="427.5091" y="-42.4" font-family="sans-serif" font-weight="bold" font-size="14.00" fill="#000000">Legend</text>
<polygon fill="#ffffb3" stroke="transparent" points="214.5,-10 214.5,-30 234.5,-30 234.5,-10 214.5,-10"/>
<text text-anchor="start" x="238.129" y="-15.4" font-family="sans-serif" font-size="14.00" fill="#000000"> &#160;Declarations</text>
<polygon fill="#8dd3c7" stroke="transparent" points="327.5,-10 327.5,-30 347.5,-30 347.5,-10 327.5,-10"/>
<text text-anchor="start" x="351.2251" y="-15.4" font-family="sans-serif" font-size="14.00" fill="#000000"> &#160;Module</text>
<polygon fill="#80b1d3" stroke="transparent" points="413.5,-10 413.5,-30 433.5,-30 433.5,-10 413.5,-10"/>
<text text-anchor="start" x="437.2812" y="-15.4" font-family="sans-serif" font-size="14.00" fill="#000000"> &#160;Bootstrap</text>
<polygon fill="#fdb462" stroke="transparent" points="510.5,-10 510.5,-30 530.5,-30 530.5,-10 510.5,-10"/>
<text text-anchor="start" x="534.1732" y="-15.4" font-family="sans-serif" font-size="14.00" fill="#000000"> &#160;Providers</text>
<polygon fill="#fb8072" stroke="transparent" points="606.5,-10 606.5,-30 626.5,-30 626.5,-10 606.5,-10"/>
<text text-anchor="start" x="630.2258" y="-15.4" font-family="sans-serif" font-size="14.00" fill="#000000"> &#160;Exports</text>
<g id="clust1" class="cluster">
<title>cluster_SearchPageModule</title>
<polygon fill="none" stroke="#000000" stroke-dasharray="1,5" points="8,-70 8,-195 889,-195 889,-70 8,-70"/>
</g>
<g id="clust2" class="cluster">
<title>cluster_SearchPageModule_declarations</title>
<polygon fill="none" stroke="#000000" points="594,-78 594,-130 881,-130 881,-78 594,-78"/>
</g>
<g id="clust5" class="cluster">
<title>cluster_SearchPageModule_imports</title>
<polygon fill="none" stroke="#000000" points="156,-78 156,-130 586,-130 586,-78 156,-78"/>
</g>
<g id="clust8" class="cluster">
<title>cluster_SearchPageModule_providers</title>
<polygon fill="none" stroke="#000000" points="16,-78 16,-130 148,-130 148,-78 16,-78"/>
</g>
<!-- MapComponent -->
<g id="node1" class="node">
<title>MapComponent</title>
<polygon fill="#ffffb3" stroke="#000000" points="873.4916,-122 766.5084,-122 766.5084,-86 873.4916,-86 873.4916,-122"/>
<text text-anchor="middle" x="820" y="-99.8" font-family="Times,serif" font-size="14.00" fill="#000000">MapComponent</text>
</g>
<!-- SearchPageModule -->
<g id="node3" class="node">
<title>SearchPageModule</title>
<polygon fill="#8dd3c7" stroke="#000000" points="534.3487,-187 531.3487,-191 510.3487,-191 507.3487,-187 409.6513,-187 409.6513,-151 534.3487,-151 534.3487,-187"/>
<text text-anchor="middle" x="472" y="-164.8" font-family="Times,serif" font-size="14.00" fill="#000000">SearchPageModule</text>
</g>
<!-- MapComponent&#45;&gt;SearchPageModule -->
<g id="edge1" class="edge">
<title>MapComponent&#45;&gt;SearchPageModule</title>
<path fill="none" stroke="#000000" d="M820,-122.2843C820,-143.3211 820,-175 820,-175 820,-175 544.6173,-175 544.6173,-175"/>
<polygon fill="#000000" stroke="#000000" points="544.6174,-171.5001 534.6173,-175 544.6173,-178.5001 544.6174,-171.5001"/>
</g>
<!-- SearchPageComponent -->
<g id="node2" class="node">
<title>SearchPageComponent</title>
<polygon fill="#ffffb3" stroke="#000000" points="748.1317,-122 601.8683,-122 601.8683,-86 748.1317,-86 748.1317,-122"/>
<text text-anchor="middle" x="675" y="-99.8" font-family="Times,serif" font-size="14.00" fill="#000000">SearchPageComponent</text>
</g>
<!-- SearchPageComponent&#45;&gt;SearchPageModule -->
<g id="edge2" class="edge">
<title>SearchPageComponent&#45;&gt;SearchPageModule</title>
<path fill="none" stroke="#000000" d="M675,-122.0225C675,-139.3734 675,-163 675,-163 675,-163 544.5631,-163 544.5631,-163"/>
<polygon fill="#000000" stroke="#000000" points="544.5631,-159.5001 534.5631,-163 544.5631,-166.5001 544.5631,-159.5001"/>
</g>
<!-- ParksModule -->
<g id="node4" class="node">
<title>ParksModule</title>
<polygon fill="#8dd3c7" stroke="#000000" points="578.1529,-122 575.1529,-126 554.1529,-126 551.1529,-122 487.8471,-122 487.8471,-86 578.1529,-86 578.1529,-122"/>
<text text-anchor="middle" x="533" y="-99.8" font-family="Times,serif" font-size="14.00" fill="#000000">ParksModule</text>
</g>
<!-- ParksModule&#45;&gt;SearchPageModule -->
<g id="edge3" class="edge">
<title>ParksModule&#45;&gt;SearchPageModule</title>
<path fill="none" stroke="#000000" d="M511.0491,-122.1061C511.0491,-122.1061 511.0491,-140.991 511.0491,-140.991"/>
<polygon fill="#000000" stroke="#000000" points="507.5492,-140.9909 511.0491,-150.991 514.5492,-140.991 507.5492,-140.9909"/>
</g>
<!-- SearchBarModule -->
<g id="node5" class="node">
<title>SearchBarModule</title>
<polygon fill="#8dd3c7" stroke="#000000" points="469.8487,-122 466.8487,-126 445.8487,-126 442.8487,-122 352.1513,-122 352.1513,-86 469.8487,-86 469.8487,-122"/>
<text text-anchor="middle" x="411" y="-99.8" font-family="Times,serif" font-size="14.00" fill="#000000">SearchBarModule</text>
</g>
<!-- SearchBarModule&#45;&gt;SearchPageModule -->
<g id="edge4" class="edge">
<title>SearchBarModule&#45;&gt;SearchPageModule</title>
<path fill="none" stroke="#000000" d="M439.75,-122.1061C439.75,-122.1061 439.75,-140.991 439.75,-140.991"/>
<polygon fill="#000000" stroke="#000000" points="436.2501,-140.9909 439.75,-150.991 443.2501,-140.991 436.2501,-140.9909"/>
</g>
<!-- SearchPageRoutingModule -->
<g id="node6" class="node">
<title>SearchPageRoutingModule</title>
<polygon fill="#8dd3c7" stroke="#000000" points="333.9664,-122 330.9664,-126 309.9664,-126 306.9664,-122 164.0336,-122 164.0336,-86 333.9664,-86 333.9664,-122"/>
<text text-anchor="middle" x="249" y="-99.8" font-family="Times,serif" font-size="14.00" fill="#000000">SearchPageRoutingModule</text>
</g>
<!-- SearchPageRoutingModule&#45;&gt;SearchPageModule -->
<g id="edge5" class="edge">
<title>SearchPageRoutingModule&#45;&gt;SearchPageModule</title>
<path fill="none" stroke="#000000" d="M249,-122.0225C249,-139.3734 249,-163 249,-163 249,-163 399.5855,-163 399.5855,-163"/>
<polygon fill="#000000" stroke="#000000" points="399.5856,-166.5001 409.5855,-163 399.5855,-159.5001 399.5856,-166.5001"/>
</g>
<!-- MapService -->
<g id="node7" class="node">
<title>MapService</title>
<ellipse fill="#fdb462" stroke="#000000" cx="82" cy="-104" rx="57.8829" ry="18"/>
<text text-anchor="middle" x="82" y="-99.8" font-family="Times,serif" font-size="14.00" fill="#000000">MapService</text>
</g>
<!-- MapService&#45;&gt;SearchPageModule -->
<g id="edge6" class="edge">
<title>MapService&#45;&gt;SearchPageModule</title>
<path fill="none" stroke="#000000" d="M82,-122.2843C82,-143.3211 82,-175 82,-175 82,-175 399.3398,-175 399.3398,-175"/>
<polygon fill="#000000" stroke="#000000" points="399.3398,-178.5001 409.3398,-175 399.3397,-171.5001 399.3398,-178.5001"/>
</g>
</g>
</svg>
