<?xml version="1.0" encoding="UTF-8" standalone="no"?>
<!DOCTYPE svg PUBLIC "-//W3C//DTD SVG 1.1//EN"
 "http://www.w3.org/Graphics/SVG/1.1/DTD/svg11.dtd">
<!-- Generated by graphviz version 2.40.1 (20161225.0304)
 -->
<!-- Title: dependencies Pages: 1 -->
<svg width="557pt" height="284pt"
 viewBox="0.00 0.00 557.00 284.00" xmlns="http://www.w3.org/2000/svg" xmlns:xlink="http://www.w3.org/1999/xlink">
<g id="graph0" class="graph" transform="scale(1 1) rotate(0) translate(4 280)">
<title>dependencies</title>
<polygon fill="#ffffff" stroke="transparent" points="-4,4 -4,-280 553,-280 553,4 -4,4"/>
<text text-anchor="start" x="253.5091" y="-42.4" font-family="sans-serif" font-weight="bold" font-size="14.00" fill="#000000">Legend</text>
<polygon fill="#ffffb3" stroke="transparent" points="40.5,-10 40.5,-30 60.5,-30 60.5,-10 40.5,-10"/>
<text text-anchor="start" x="64.129" y="-15.4" font-family="sans-serif" font-size="14.00" fill="#000000"> &#160;Declarations</text>
<polygon fill="#8dd3c7" stroke="transparent" points="153.5,-10 153.5,-30 173.5,-30 173.5,-10 153.5,-10"/>
<text text-anchor="start" x="177.2251" y="-15.4" font-family="sans-serif" font-size="14.00" fill="#000000"> &#160;Module</text>
<polygon fill="#80b1d3" stroke="transparent" points="239.5,-10 239.5,-30 259.5,-30 259.5,-10 239.5,-10"/>
<text text-anchor="start" x="263.2812" y="-15.4" font-family="sans-serif" font-size="14.00" fill="#000000"> &#160;Bootstrap</text>
<polygon fill="#fdb462" stroke="transparent" points="336.5,-10 336.5,-30 356.5,-30 356.5,-10 336.5,-10"/>
<text text-anchor="start" x="360.1732" y="-15.4" font-family="sans-serif" font-size="14.00" fill="#000000"> &#160;Providers</text>
<polygon fill="#fb8072" stroke="transparent" points="432.5,-10 432.5,-30 452.5,-30 452.5,-10 432.5,-10"/>
<text text-anchor="start" x="456.2258" y="-15.4" font-family="sans-serif" font-size="14.00" fill="#000000"> &#160;Exports</text>
<g id="clust1" class="cluster">
<title>cluster_TermsModule</title>
<polygon fill="none" stroke="#000000" stroke-dasharray="1,5" points="8,-70 8,-268 541,-268 541,-70 8,-70"/>
</g>
<g id="clust2" class="cluster">
<title>cluster_TermsModule_declarations</title>
<polygon fill="none" stroke="#000000" points="170,-78 170,-130 533,-130 533,-78 170,-78"/>
</g>
<g id="clust6" class="cluster">
<title>cluster_TermsModule_exports</title>
<polygon fill="none" stroke="#000000" points="160,-208 160,-260 352,-260 352,-208 160,-208"/>
</g>
<g id="clust8" class="cluster">
<title>cluster_TermsModule_providers</title>
<polygon fill="none" stroke="#000000" points="16,-78 16,-130 162,-130 162,-78 16,-78"/>
</g>
<!-- TermsContainerComponent -->
<g id="node1" class="node">
<title>TermsContainerComponent</title>
<polygon fill="#ffffb3" stroke="#000000" points="525.3033,-122 352.6967,-122 352.6967,-86 525.3033,-86 525.3033,-122"/>
<text text-anchor="middle" x="439" y="-99.8" font-family="Times,serif" font-size="14.00" fill="#000000">TermsContainerComponent</text>
</g>
<!-- TermsModule -->
<g id="node3" class="node">
<title>TermsModule</title>
<polygon fill="#8dd3c7" stroke="#000000" points="303.8133,-187 300.8133,-191 279.8133,-191 276.8133,-187 208.1867,-187 208.1867,-151 303.8133,-151 303.8133,-187"/>
<text text-anchor="middle" x="256" y="-164.8" font-family="Times,serif" font-size="14.00" fill="#000000">TermsModule</text>
</g>
<!-- TermsContainerComponent&#45;&gt;TermsModule -->
<g id="edge1" class="edge">
<title>TermsContainerComponent&#45;&gt;TermsModule</title>
<path fill="none" stroke="#000000" d="M439,-122.1061C439,-141.3391 439,-169 439,-169 439,-169 314.0811,-169 314.0811,-169"/>
<polygon fill="#000000" stroke="#000000" points="314.0811,-165.5001 304.0811,-169 314.0811,-172.5001 314.0811,-165.5001"/>
</g>
<!-- TermsDetailsComponent -->
<g id="node2" class="node">
<title>TermsDetailsComponent</title>
<polygon fill="#ffffb3" stroke="#000000" points="334.2478,-122 177.7522,-122 177.7522,-86 334.2478,-86 334.2478,-122"/>
<text text-anchor="middle" x="256" y="-99.8" font-family="Times,serif" font-size="14.00" fill="#000000">TermsDetailsComponent</text>
</g>
<!-- TermsDetailsComponent&#45;&gt;TermsModule -->
<g id="edge2" class="edge">
<title>TermsDetailsComponent&#45;&gt;TermsModule</title>
<path fill="none" stroke="#000000" d="M256,-122.1061C256,-122.1061 256,-140.991 256,-140.991"/>
<polygon fill="#000000" stroke="#000000" points="252.5001,-140.9909 256,-150.991 259.5001,-140.991 252.5001,-140.9909"/>
</g>
<!-- TermsContainerComponent  -->
<g id="node4" class="node">
<title>TermsContainerComponent </title>
<polygon fill="#fb8072" stroke="#000000" points="343.8031,-252 168.1969,-252 168.1969,-216 343.8031,-216 343.8031,-252"/>
<text text-anchor="middle" x="256" y="-229.8" font-family="Times,serif" font-size="14.00" fill="#000000">TermsContainerComponent </text>
</g>
<!-- TermsModule&#45;&gt;TermsContainerComponent  -->
<g id="edge3" class="edge">
<title>TermsModule&#45;&gt;TermsContainerComponent </title>
<path fill="none" stroke="#000000" stroke-dasharray="5,2" d="M256,-187.1061C256,-187.1061 256,-205.991 256,-205.991"/>
<polygon fill="#000000" stroke="#000000" points="252.5001,-205.9909 256,-215.991 259.5001,-205.991 252.5001,-205.9909"/>
</g>
<!-- TermsService -->
<g id="node5" class="node">
<title>TermsService</title>
<ellipse fill="#fdb462" stroke="#000000" cx="89" cy="-104" rx="64.8215" ry="18"/>
<text text-anchor="middle" x="89" y="-99.8" font-family="Times,serif" font-size="14.00" fill="#000000">TermsService</text>
</g>
<!-- TermsService&#45;&gt;TermsModule -->
<g id="edge4" class="edge">
<title>TermsService&#45;&gt;TermsModule</title>
<path fill="none" stroke="#000000" d="M89,-122.1061C89,-141.3391 89,-169 89,-169 89,-169 198.1445,-169 198.1445,-169"/>
<polygon fill="#000000" stroke="#000000" points="198.1445,-172.5001 208.1445,-169 198.1445,-165.5001 198.1445,-172.5001"/>
</g>
</g>
</svg>
