<?xml version="1.0" encoding="UTF-8" standalone="no"?>
<!DOCTYPE svg PUBLIC "-//W3C//DTD SVG 1.1//EN"
 "http://www.w3.org/Graphics/SVG/1.1/DTD/svg11.dtd">
<!-- Generated by graphviz version 2.40.1 (20161225.0304)
 -->
<!-- Title: dependencies Pages: 1 -->
<svg width="700pt" height="284pt"
 viewBox="0.00 0.00 700.00 284.00" xmlns="http://www.w3.org/2000/svg" xmlns:xlink="http://www.w3.org/1999/xlink">
<g id="graph0" class="graph" transform="scale(1 1) rotate(0) translate(4 280)">
<title>dependencies</title>
<polygon fill="#ffffff" stroke="transparent" points="-4,4 -4,-280 696,-280 696,4 -4,4"/>
<text text-anchor="start" x="325.0091" y="-42.4" font-family="sans-serif" font-weight="bold" font-size="14.00" fill="#000000">Legend</text>
<polygon fill="#ffffb3" stroke="transparent" points="112,-10 112,-30 132,-30 132,-10 112,-10"/>
<text text-anchor="start" x="135.629" y="-15.4" font-family="sans-serif" font-size="14.00" fill="#000000"> &#160;Declarations</text>
<polygon fill="#8dd3c7" stroke="transparent" points="225,-10 225,-30 245,-30 245,-10 225,-10"/>
<text text-anchor="start" x="248.7251" y="-15.4" font-family="sans-serif" font-size="14.00" fill="#000000"> &#160;Module</text>
<polygon fill="#80b1d3" stroke="transparent" points="311,-10 311,-30 331,-30 331,-10 311,-10"/>
<text text-anchor="start" x="334.7812" y="-15.4" font-family="sans-serif" font-size="14.00" fill="#000000"> &#160;Bootstrap</text>
<polygon fill="#fdb462" stroke="transparent" points="408,-10 408,-30 428,-30 428,-10 408,-10"/>
<text text-anchor="start" x="431.6732" y="-15.4" font-family="sans-serif" font-size="14.00" fill="#000000"> &#160;Providers</text>
<polygon fill="#fb8072" stroke="transparent" points="504,-10 504,-30 524,-30 524,-10 504,-10"/>
<text text-anchor="start" x="527.7258" y="-15.4" font-family="sans-serif" font-size="14.00" fill="#000000"> &#160;Exports</text>
<g id="clust1" class="cluster">
<title>cluster_ParksModule</title>
<polygon fill="none" stroke="#000000" stroke-dasharray="1,5" points="8,-70 8,-268 684,-268 684,-70 8,-70"/>
</g>
<g id="clust2" class="cluster">
<title>cluster_ParksModule_declarations</title>
<polygon fill="none" stroke="#000000" points="322,-78 322,-130 676,-130 676,-78 322,-78"/>
</g>
<g id="clust5" class="cluster">
<title>cluster_ParksModule_imports</title>
<polygon fill="none" stroke="#000000" points="162,-78 162,-130 314,-130 314,-78 162,-78"/>
</g>
<g id="clust6" class="cluster">
<title>cluster_ParksModule_exports</title>
<polygon fill="none" stroke="#000000" points="228,-208 228,-260 416,-260 416,-208 228,-208"/>
</g>
<g id="clust8" class="cluster">
<title>cluster_ParksModule_providers</title>
<polygon fill="none" stroke="#000000" points="16,-78 16,-130 154,-130 154,-78 16,-78"/>
</g>
<!-- ParksContainerComponent -->
<g id="node1" class="node">
<title>ParksContainerComponent</title>
<polygon fill="#ffffb3" stroke="#000000" points="667.6428,-122 500.3572,-122 500.3572,-86 667.6428,-86 667.6428,-122"/>
<text text-anchor="middle" x="584" y="-99.8" font-family="Times,serif" font-size="14.00" fill="#000000">ParksContainerComponent</text>
</g>
<!-- ParksModule -->
<g id="node3" class="node">
<title>ParksModule</title>
<polygon fill="#8dd3c7" stroke="#000000" points="367.1529,-187 364.1529,-191 343.1529,-191 340.1529,-187 276.8471,-187 276.8471,-151 367.1529,-151 367.1529,-187"/>
<text text-anchor="middle" x="322" y="-164.8" font-family="Times,serif" font-size="14.00" fill="#000000">ParksModule</text>
</g>
<!-- ParksContainerComponent&#45;&gt;ParksModule -->
<g id="edge1" class="edge">
<title>ParksContainerComponent&#45;&gt;ParksModule</title>
<path fill="none" stroke="#000000" d="M584,-122.1061C584,-141.3391 584,-169 584,-169 584,-169 377.3378,-169 377.3378,-169"/>
<polygon fill="#000000" stroke="#000000" points="377.3378,-165.5001 367.3378,-169 377.3378,-172.5001 377.3378,-165.5001"/>
</g>
<!-- ParksDetailsComponent -->
<g id="node2" class="node">
<title>ParksDetailsComponent</title>
<polygon fill="#ffffb3" stroke="#000000" points="482.087,-122 329.913,-122 329.913,-86 482.087,-86 482.087,-122"/>
<text text-anchor="middle" x="406" y="-99.8" font-family="Times,serif" font-size="14.00" fill="#000000">ParksDetailsComponent</text>
</g>
<!-- ParksDetailsComponent&#45;&gt;ParksModule -->
<g id="edge2" class="edge">
<title>ParksDetailsComponent&#45;&gt;ParksModule</title>
<path fill="none" stroke="#000000" d="M348.6413,-122.1061C348.6413,-122.1061 348.6413,-140.991 348.6413,-140.991"/>
<polygon fill="#000000" stroke="#000000" points="345.1414,-140.9909 348.6413,-150.991 352.1414,-140.991 345.1414,-140.9909"/>
</g>
<!-- ParksContainerComponent  -->
<g id="node5" class="node">
<title>ParksContainerComponent </title>
<polygon fill="#fb8072" stroke="#000000" points="407.6425,-252 236.3575,-252 236.3575,-216 407.6425,-216 407.6425,-252"/>
<text text-anchor="middle" x="322" y="-229.8" font-family="Times,serif" font-size="14.00" fill="#000000">ParksContainerComponent </text>
</g>
<!-- ParksModule&#45;&gt;ParksContainerComponent  -->
<g id="edge4" class="edge">
<title>ParksModule&#45;&gt;ParksContainerComponent </title>
<path fill="none" stroke="#000000" stroke-dasharray="5,2" d="M322,-187.1061C322,-187.1061 322,-205.991 322,-205.991"/>
<polygon fill="#000000" stroke="#000000" points="318.5001,-205.9909 322,-215.991 325.5001,-205.991 318.5001,-205.9909"/>
</g>
<!-- ParksRoutingModule -->
<g id="node4" class="node">
<title>ParksRoutingModule</title>
<polygon fill="#8dd3c7" stroke="#000000" points="305.7702,-122 302.7702,-126 281.7702,-126 278.7702,-122 170.2298,-122 170.2298,-86 305.7702,-86 305.7702,-122"/>
<text text-anchor="middle" x="238" y="-99.8" font-family="Times,serif" font-size="14.00" fill="#000000">ParksRoutingModule</text>
</g>
<!-- ParksRoutingModule&#45;&gt;ParksModule -->
<g id="edge3" class="edge">
<title>ParksRoutingModule&#45;&gt;ParksModule</title>
<path fill="none" stroke="#000000" d="M291.2795,-122.1061C291.2795,-122.1061 291.2795,-140.991 291.2795,-140.991"/>
<polygon fill="#000000" stroke="#000000" points="287.7795,-140.9909 291.2795,-150.991 294.7795,-140.991 287.7795,-140.9909"/>
</g>
<!-- ParksService -->
<g id="node6" class="node">
<title>ParksService</title>
<ellipse fill="#fdb462" stroke="#000000" cx="85" cy="-104" rx="61.3916" ry="18"/>
<text text-anchor="middle" x="85" y="-99.8" font-family="Times,serif" font-size="14.00" fill="#000000">ParksService</text>
</g>
<!-- ParksService&#45;&gt;ParksModule -->
<g id="edge5" class="edge">
<title>ParksService&#45;&gt;ParksModule</title>
<path fill="none" stroke="#000000" d="M85,-122.1061C85,-141.3391 85,-169 85,-169 85,-169 266.5844,-169 266.5844,-169"/>
<polygon fill="#000000" stroke="#000000" points="266.5845,-172.5001 276.5844,-169 266.5844,-165.5001 266.5845,-172.5001"/>
</g>
</g>
</svg>
