<?xml version="1.0" encoding="UTF-8" standalone="no"?>
<!DOCTYPE svg PUBLIC "-//W3C//DTD SVG 1.1//EN"
 "http://www.w3.org/Graphics/SVG/1.1/DTD/svg11.dtd">
<!-- Generated by graphviz version 2.40.1 (20161225.0304)
 -->
<!-- Title: dependencies Pages: 1 -->
<svg width="1610pt" height="284pt"
 viewBox="0.00 0.00 1610.00 284.00" xmlns="http://www.w3.org/2000/svg" xmlns:xlink="http://www.w3.org/1999/xlink">
<g id="graph0" class="graph" transform="scale(1 1) rotate(0) translate(4 280)">
<title>dependencies</title>
<polygon fill="#ffffff" stroke="transparent" points="-4,4 -4,-280 1606,-280 1606,4 -4,4"/>
<text text-anchor="start" x="780.0091" y="-42.4" font-family="sans-serif" font-weight="bold" font-size="14.00" fill="#000000">Legend</text>
<polygon fill="#ffffb3" stroke="transparent" points="567,-10 567,-30 587,-30 587,-10 567,-10"/>
<text text-anchor="start" x="590.629" y="-15.4" font-family="sans-serif" font-size="14.00" fill="#000000"> &#160;Declarations</text>
<polygon fill="#8dd3c7" stroke="transparent" points="680,-10 680,-30 700,-30 700,-10 680,-10"/>
<text text-anchor="start" x="703.7251" y="-15.4" font-family="sans-serif" font-size="14.00" fill="#000000"> &#160;Module</text>
<polygon fill="#80b1d3" stroke="transparent" points="766,-10 766,-30 786,-30 786,-10 766,-10"/>
<text text-anchor="start" x="789.7812" y="-15.4" font-family="sans-serif" font-size="14.00" fill="#000000"> &#160;Bootstrap</text>
<polygon fill="#fdb462" stroke="transparent" points="863,-10 863,-30 883,-30 883,-10 863,-10"/>
<text text-anchor="start" x="886.6732" y="-15.4" font-family="sans-serif" font-size="14.00" fill="#000000"> &#160;Providers</text>
<polygon fill="#fb8072" stroke="transparent" points="959,-10 959,-30 979,-30 979,-10 959,-10"/>
<text text-anchor="start" x="982.7258" y="-15.4" font-family="sans-serif" font-size="14.00" fill="#000000"> &#160;Exports</text>
<g id="clust1" class="cluster">
<title>cluster_AppModule</title>
<polygon fill="none" stroke="#000000" stroke-dasharray="1,5" points="8,-70 8,-268 1594,-268 1594,-70 8,-70"/>
</g>
<g id="clust2" class="cluster">
<title>cluster_AppModule_declarations</title>
<polygon fill="none" stroke="#000000" points="986,-78 986,-130 1586,-130 1586,-78 986,-78"/>
</g>
<g id="clust7" class="cluster">
<title>cluster_AppModule_imports</title>
<polygon fill="none" stroke="#000000" points="186,-78 186,-130 978,-130 978,-78 186,-78"/>
</g>
<g id="clust9" class="cluster">
<title>cluster_AppModule_bootstrap</title>
<polygon fill="none" stroke="#000000" points="697,-208 697,-260 821,-260 821,-208 697,-208"/>
</g>
<g id="clust10" class="cluster">
<title>cluster_AppModule_providers</title>
<polygon fill="none" stroke="#000000" points="16,-78 16,-130 178,-130 178,-78 16,-78"/>
</g>
<!-- AppComponent -->
<g id="node1" class="node">
<title>AppComponent</title>
<polygon fill="#ffffb3" stroke="#000000" points="1577.9399,-122 1472.0601,-122 1472.0601,-86 1577.9399,-86 1577.9399,-122"/>
<text text-anchor="middle" x="1525" y="-99.8" font-family="Times,serif" font-size="14.00" fill="#000000">AppComponent</text>
</g>
<!-- AppModule -->
<g id="node5" class="node">
<title>AppModule</title>
<polygon fill="#8dd3c7" stroke="#000000" points="800.6571,-187 797.6571,-191 776.6571,-191 773.6571,-187 717.3429,-187 717.3429,-151 800.6571,-151 800.6571,-187"/>
<text text-anchor="middle" x="759" y="-164.8" font-family="Times,serif" font-size="14.00" fill="#000000">AppModule</text>
</g>
<!-- AppComponent&#45;&gt;AppModule -->
<g id="edge1" class="edge">
<title>AppComponent&#45;&gt;AppModule</title>
<path fill="none" stroke="#000000" d="M1525,-122.2479C1525,-145.0179 1525,-181 1525,-181 1525,-181 810.7275,-181 810.7275,-181"/>
<polygon fill="#000000" stroke="#000000" points="810.7275,-177.5001 800.7275,-181 810.7274,-184.5001 810.7275,-177.5001"/>
</g>
<!-- HomeComponent -->
<g id="node2" class="node">
<title>HomeComponent</title>
<polygon fill="#ffffb3" stroke="#000000" points="1454.5451,-122 1339.4549,-122 1339.4549,-86 1454.5451,-86 1454.5451,-122"/>
<text text-anchor="middle" x="1397" y="-99.8" font-family="Times,serif" font-size="14.00" fill="#000000">HomeComponent</text>
</g>
<!-- HomeComponent&#45;&gt;AppModule -->
<g id="edge2" class="edge">
<title>HomeComponent&#45;&gt;AppModule</title>
<path fill="none" stroke="#000000" d="M1397,-122.2843C1397,-143.3211 1397,-175 1397,-175 1397,-175 810.861,-175 810.861,-175"/>
<polygon fill="#000000" stroke="#000000" points="810.861,-171.5001 800.861,-175 810.8609,-178.5001 810.861,-171.5001"/>
</g>
<!-- NavigationComponent -->
<g id="node3" class="node">
<title>NavigationComponent</title>
<polygon fill="#ffffb3" stroke="#000000" points="1320.5407,-122 1177.4593,-122 1177.4593,-86 1320.5407,-86 1320.5407,-122"/>
<text text-anchor="middle" x="1249" y="-99.8" font-family="Times,serif" font-size="14.00" fill="#000000">NavigationComponent</text>
</g>
<!-- NavigationComponent&#45;&gt;AppModule -->
<g id="edge3" class="edge">
<title>NavigationComponent&#45;&gt;AppModule</title>
<path fill="none" stroke="#000000" d="M1249,-122.1061C1249,-141.3391 1249,-169 1249,-169 1249,-169 810.7771,-169 810.7771,-169"/>
<polygon fill="#000000" stroke="#000000" points="810.7772,-165.5001 800.7771,-169 810.7771,-172.5001 810.7772,-165.5001"/>
</g>
<!-- PageNotFoundComponent -->
<g id="node4" class="node">
<title>PageNotFoundComponent</title>
<polygon fill="#ffffb3" stroke="#000000" points="1159.8243,-122 994.1757,-122 994.1757,-86 1159.8243,-86 1159.8243,-122"/>
<text text-anchor="middle" x="1077" y="-99.8" font-family="Times,serif" font-size="14.00" fill="#000000">PageNotFoundComponent</text>
</g>
<!-- PageNotFoundComponent&#45;&gt;AppModule -->
<g id="edge4" class="edge">
<title>PageNotFoundComponent&#45;&gt;AppModule</title>
<path fill="none" stroke="#000000" d="M1077,-122.0225C1077,-139.3734 1077,-163 1077,-163 1077,-163 810.8999,-163 810.8999,-163"/>
<polygon fill="#000000" stroke="#000000" points="810.9,-159.5001 800.8999,-163 810.8999,-166.5001 810.9,-159.5001"/>
</g>
<!-- AppComponent  -->
<g id="node12" class="node">
<title>AppComponent </title>
<polygon fill="#80b1d3" stroke="#000000" points="813.439,-252 704.561,-252 704.561,-216 813.439,-216 813.439,-252"/>
<text text-anchor="middle" x="759" y="-229.8" font-family="Times,serif" font-size="14.00" fill="#000000">AppComponent </text>
</g>
<!-- AppModule&#45;&gt;AppComponent  -->
<g id="edge11" class="edge">
<title>AppModule&#45;&gt;AppComponent </title>
<path fill="none" stroke="#000000" stroke-dasharray="1,5" d="M759,-187.1061C759,-187.1061 759,-205.991 759,-205.991"/>
<polygon fill="#000000" stroke="#000000" points="755.5001,-205.9909 759,-215.991 762.5001,-205.991 755.5001,-205.9909"/>
</g>
<!-- AppRoutingModule -->
<g id="node6" class="node">
<title>AppRoutingModule</title>
<polygon fill="#8dd3c7" stroke="#000000" points="970.2744,-122 967.2744,-126 946.2744,-126 943.2744,-122 841.7256,-122 841.7256,-86 970.2744,-86 970.2744,-122"/>
<text text-anchor="middle" x="906" y="-99.8" font-family="Times,serif" font-size="14.00" fill="#000000">AppRoutingModule</text>
</g>
<!-- AppRoutingModule&#45;&gt;AppModule -->
<g id="edge5" class="edge">
<title>AppRoutingModule&#45;&gt;AppModule</title>
<path fill="none" stroke="#000000" d="M906,-122.2396C906,-137.5706 906,-157 906,-157 906,-157 810.7311,-157 810.7311,-157"/>
<polygon fill="#000000" stroke="#000000" points="810.7311,-153.5001 800.7311,-157 810.7311,-160.5001 810.7311,-153.5001"/>
</g>
<!-- LoginModalModule -->
<g id="node7" class="node">
<title>LoginModalModule</title>
<polygon fill="#8dd3c7" stroke="#000000" points="823.5436,-122 820.5436,-126 799.5436,-126 796.5436,-122 694.4564,-122 694.4564,-86 823.5436,-86 823.5436,-122"/>
<text text-anchor="middle" x="759" y="-99.8" font-family="Times,serif" font-size="14.00" fill="#000000">LoginModalModule</text>
</g>
<!-- LoginModalModule&#45;&gt;AppModule -->
<g id="edge6" class="edge">
<title>LoginModalModule&#45;&gt;AppModule</title>
<path fill="none" stroke="#000000" d="M759,-122.1061C759,-122.1061 759,-140.991 759,-140.991"/>
<polygon fill="#000000" stroke="#000000" points="755.5001,-140.9909 759,-150.991 762.5001,-140.991 755.5001,-140.9909"/>
</g>
<!-- ParksModule -->
<g id="node8" class="node">
<title>ParksModule</title>
<polygon fill="#8dd3c7" stroke="#000000" points="676.1529,-122 673.1529,-126 652.1529,-126 649.1529,-122 585.8471,-122 585.8471,-86 676.1529,-86 676.1529,-122"/>
<text text-anchor="middle" x="631" y="-99.8" font-family="Times,serif" font-size="14.00" fill="#000000">ParksModule</text>
</g>
<!-- ParksModule&#45;&gt;AppModule -->
<g id="edge7" class="edge">
<title>ParksModule&#45;&gt;AppModule</title>
<path fill="none" stroke="#000000" d="M631,-122.2396C631,-137.5706 631,-157 631,-157 631,-157 707.088,-157 707.088,-157"/>
<polygon fill="#000000" stroke="#000000" points="707.088,-160.5001 717.088,-157 707.088,-153.5001 707.088,-160.5001"/>
</g>
<!-- SearchBarModule -->
<g id="node9" class="node">
<title>SearchBarModule</title>
<polygon fill="#8dd3c7" stroke="#000000" points="567.8487,-122 564.8487,-126 543.8487,-126 540.8487,-122 450.1513,-122 450.1513,-86 567.8487,-86 567.8487,-122"/>
<text text-anchor="middle" x="509" y="-99.8" font-family="Times,serif" font-size="14.00" fill="#000000">SearchBarModule</text>
</g>
<!-- SearchBarModule&#45;&gt;AppModule -->
<g id="edge8" class="edge">
<title>SearchBarModule&#45;&gt;AppModule</title>
<path fill="none" stroke="#000000" d="M509,-122.0225C509,-139.3734 509,-163 509,-163 509,-163 707.1556,-163 707.1556,-163"/>
<polygon fill="#000000" stroke="#000000" points="707.1557,-166.5001 717.1556,-163 707.1556,-159.5001 707.1557,-166.5001"/>
</g>
<!-- SearchPageModule -->
<g id="node10" class="node">
<title>SearchPageModule</title>
<polygon fill="#8dd3c7" stroke="#000000" points="432.3487,-122 429.3487,-126 408.3487,-126 405.3487,-122 307.6513,-122 307.6513,-86 432.3487,-86 432.3487,-122"/>
<text text-anchor="middle" x="370" y="-99.8" font-family="Times,serif" font-size="14.00" fill="#000000">SearchPageModule</text>
</g>
<!-- SearchPageModule&#45;&gt;AppModule -->
<g id="edge9" class="edge">
<title>SearchPageModule&#45;&gt;AppModule</title>
<path fill="none" stroke="#000000" d="M370,-122.1061C370,-141.3391 370,-169 370,-169 370,-169 707.0006,-169 707.0006,-169"/>
<polygon fill="#000000" stroke="#000000" points="707.0006,-172.5001 717.0006,-169 707.0006,-165.5001 707.0006,-172.5001"/>
</g>
<!-- TermsModule -->
<g id="node11" class="node">
<title>TermsModule</title>
<polygon fill="#8dd3c7" stroke="#000000" points="289.8133,-122 286.8133,-126 265.8133,-126 262.8133,-122 194.1867,-122 194.1867,-86 289.8133,-86 289.8133,-122"/>
<text text-anchor="middle" x="242" y="-99.8" font-family="Times,serif" font-size="14.00" fill="#000000">TermsModule</text>
</g>
<!-- TermsModule&#45;&gt;AppModule -->
<g id="edge10" class="edge">
<title>TermsModule&#45;&gt;AppModule</title>
<path fill="none" stroke="#000000" d="M242,-122.2843C242,-143.3211 242,-175 242,-175 242,-175 707.1297,-175 707.1297,-175"/>
<polygon fill="#000000" stroke="#000000" points="707.1297,-178.5001 717.1297,-175 707.1296,-171.5001 707.1297,-178.5001"/>
</g>
<!-- AuthInterceptor -->
<g id="node13" class="node">
<title>AuthInterceptor</title>
<ellipse fill="#fdb462" stroke="#000000" cx="97" cy="-104" rx="72.9121" ry="18"/>
<text text-anchor="middle" x="97" y="-99.8" font-family="Times,serif" font-size="14.00" fill="#000000">AuthInterceptor</text>
</g>
<!-- AuthInterceptor&#45;&gt;AppModule -->
<g id="edge12" class="edge">
<title>AuthInterceptor&#45;&gt;AppModule</title>
<path fill="none" stroke="#000000" d="M97,-122.2479C97,-145.0179 97,-181 97,-181 97,-181 707.3382,-181 707.3382,-181"/>
<polygon fill="#000000" stroke="#000000" points="707.3382,-184.5001 717.3382,-181 707.3381,-177.5001 707.3382,-184.5001"/>
</g>
</g>
</svg>
