<?xml version="1.0" encoding="UTF-8" standalone="no"?>
<!DOCTYPE svg PUBLIC "-//W3C//DTD SVG 1.1//EN"
 "http://www.w3.org/Graphics/SVG/1.1/DTD/svg11.dtd">
<!-- Generated by graphviz version 2.40.1 (20161225.0304)
 -->
<!-- Title: dependencies Pages: 1 -->
<svg width="504pt" height="284pt"
 viewBox="0.00 0.00 504.00 284.00" xmlns="http://www.w3.org/2000/svg" xmlns:xlink="http://www.w3.org/1999/xlink">
<g id="graph0" class="graph" transform="scale(1 1) rotate(0) translate(4 280)">
<title>dependencies</title>
<polygon fill="#ffffff" stroke="transparent" points="-4,4 -4,-280 500,-280 500,4 -4,4"/>
<text text-anchor="start" x="227.0091" y="-42.4" font-family="sans-serif" font-weight="bold" font-size="14.00" fill="#000000">Legend</text>
<polygon fill="#ffffb3" stroke="transparent" points="14,-10 14,-30 34,-30 34,-10 14,-10"/>
<text text-anchor="start" x="37.629" y="-15.4" font-family="sans-serif" font-size="14.00" fill="#000000"> &#160;Declarations</text>
<polygon fill="#8dd3c7" stroke="transparent" points="127,-10 127,-30 147,-30 147,-10 127,-10"/>
<text text-anchor="start" x="150.7251" y="-15.4" font-family="sans-serif" font-size="14.00" fill="#000000"> &#160;Module</text>
<polygon fill="#80b1d3" stroke="transparent" points="213,-10 213,-30 233,-30 233,-10 213,-10"/>
<text text-anchor="start" x="236.7812" y="-15.4" font-family="sans-serif" font-size="14.00" fill="#000000"> &#160;Bootstrap</text>
<polygon fill="#fdb462" stroke="transparent" points="310,-10 310,-30 330,-30 330,-10 310,-10"/>
<text text-anchor="start" x="333.6732" y="-15.4" font-family="sans-serif" font-size="14.00" fill="#000000"> &#160;Providers</text>
<polygon fill="#fb8072" stroke="transparent" points="406,-10 406,-30 426,-30 426,-10 406,-10"/>
<text text-anchor="start" x="429.7258" y="-15.4" font-family="sans-serif" font-size="14.00" fill="#000000"> &#160;Exports</text>
<g id="clust1" class="cluster">
<title>cluster_LoginModalModule</title>
<polygon fill="none" stroke="#000000" stroke-dasharray="1,5" points="85,-70 85,-268 411,-268 411,-70 85,-70"/>
</g>
<g id="clust2" class="cluster">
<title>cluster_LoginModalModule_declarations</title>
<polygon fill="none" stroke="#000000" points="235,-78 235,-130 403,-130 403,-78 235,-78"/>
</g>
<g id="clust5" class="cluster">
<title>cluster_LoginModalModule_exports</title>
<polygon fill="none" stroke="#000000" points="163,-208 163,-260 333,-260 333,-208 163,-208"/>
</g>
<g id="clust7" class="cluster">
<title>cluster_LoginModalModule_providers</title>
<polygon fill="none" stroke="#000000" points="93,-78 93,-130 227,-130 227,-78 93,-78"/>
</g>
<!-- LoginModalComponent -->
<g id="node1" class="node">
<title>LoginModalComponent</title>
<polygon fill="#ffffb3" stroke="#000000" points="394.8258,-122 243.1742,-122 243.1742,-86 394.8258,-86 394.8258,-122"/>
<text text-anchor="middle" x="319" y="-99.8" font-family="Times,serif" font-size="14.00" fill="#000000">LoginModalComponent</text>
</g>
<!-- LoginModalModule -->
<g id="node2" class="node">
<title>LoginModalModule</title>
<polygon fill="#8dd3c7" stroke="#000000" points="312.5436,-187 309.5436,-191 288.5436,-191 285.5436,-187 183.4564,-187 183.4564,-151 312.5436,-151 312.5436,-187"/>
<text text-anchor="middle" x="248" y="-164.8" font-family="Times,serif" font-size="14.00" fill="#000000">LoginModalModule</text>
</g>
<!-- LoginModalComponent&#45;&gt;LoginModalModule -->
<g id="edge1" class="edge">
<title>LoginModalComponent&#45;&gt;LoginModalModule</title>
<path fill="none" stroke="#000000" d="M278.0544,-122.1061C278.0544,-122.1061 278.0544,-140.991 278.0544,-140.991"/>
<polygon fill="#000000" stroke="#000000" points="274.5544,-140.9909 278.0544,-150.991 281.5544,-140.991 274.5544,-140.9909"/>
</g>
<!-- LoginModalComponent  -->
<g id="node3" class="node">
<title>LoginModalComponent </title>
<polygon fill="#fb8072" stroke="#000000" points="325.3255,-252 170.6745,-252 170.6745,-216 325.3255,-216 325.3255,-252"/>
<text text-anchor="middle" x="248" y="-229.8" font-family="Times,serif" font-size="14.00" fill="#000000">LoginModalComponent </text>
</g>
<!-- LoginModalModule&#45;&gt;LoginModalComponent  -->
<g id="edge2" class="edge">
<title>LoginModalModule&#45;&gt;LoginModalComponent </title>
<path fill="none" stroke="#000000" stroke-dasharray="5,2" d="M248,-187.1061C248,-187.1061 248,-205.991 248,-205.991"/>
<polygon fill="#000000" stroke="#000000" points="244.5001,-205.9909 248,-215.991 251.5001,-205.991 244.5001,-205.9909"/>
</g>
<!-- AuthService -->
<g id="node4" class="node">
<title>AuthService</title>
<ellipse fill="#fdb462" stroke="#000000" cx="160" cy="-104" rx="59.1083" ry="18"/>
<text text-anchor="middle" x="160" y="-99.8" font-family="Times,serif" font-size="14.00" fill="#000000">AuthService</text>
</g>
<!-- AuthService&#45;&gt;LoginModalModule -->
<g id="edge3" class="edge">
<title>AuthService&#45;&gt;LoginModalModule</title>
<path fill="none" stroke="#000000" d="M201.2662,-117.1537C201.2662,-117.1537 201.2662,-140.6938 201.2662,-140.6938"/>
<polygon fill="#000000" stroke="#000000" points="197.7663,-140.6938 201.2662,-150.6938 204.7663,-140.6939 197.7663,-140.6938"/>
</g>
</g>
</svg>
